<svg width="751" height="377" viewBox="0 0 751 377" fill="none" xmlns="http://www.w3.org/2000/svg">
<g filter="url(#filter0_d_16_53)">
<rect x="30" y="20" width="691" height="317" rx="75" fill="#F2F2F2"/>
</g>
<path d="M127.134 270.102C120.346 270.102 114.128 268.447 108.481 265.139C102.834 261.774 98.328 257.267 94.9626 251.62C91.6542 245.973 90 239.756 90 232.968C90 226.123 91.6542 219.877 94.9626 214.23C98.328 208.583 102.834 204.077 108.481 200.711C114.128 197.346 120.346 195.663 127.134 195.663H146.984V161.267H127.134C120.346 161.267 114.128 159.613 108.481 156.305C102.834 152.939 98.328 148.462 94.9626 142.872C91.6542 137.225 90 130.979 90 124.134C90 117.289 91.6542 111.071 94.9626 105.481C98.328 99.8342 102.834 95.3565 108.481 92.0481C114.128 88.6827 120.346 87 127.134 87C133.979 87 140.225 88.6827 145.872 92.0481C151.519 95.3565 156.025 99.8342 159.39 105.481C162.756 111.071 164.439 117.289 164.439 124.134V143.813H198.834V124.134C198.834 117.289 200.488 111.071 203.797 105.481C207.162 99.8342 211.64 95.3565 217.23 92.0481C222.877 88.6827 229.123 87 235.968 87C242.813 87 249.03 88.6827 254.62 92.0481C260.267 95.3565 264.745 99.8342 268.053 105.481C271.419 111.071 273.102 117.289 273.102 124.134C273.102 130.979 271.419 137.225 268.053 142.872C264.745 148.462 260.267 152.939 254.62 156.305C249.03 159.613 242.813 161.267 235.968 161.267H216.289V195.663H235.968C242.813 195.663 249.03 197.346 254.62 200.711C260.267 204.077 264.745 208.583 268.053 214.23C271.419 219.877 273.102 226.123 273.102 232.968C273.102 239.756 271.419 245.973 268.053 251.62C264.745 257.267 260.267 261.774 254.62 265.139C249.03 268.447 242.813 270.102 235.968 270.102C229.123 270.102 222.877 268.447 217.23 265.139C211.64 261.774 207.162 257.267 203.797 251.62C200.488 245.973 198.834 239.756 198.834 232.968V213.118H164.439V232.968C164.439 239.756 162.756 245.973 159.39 251.62C156.025 257.267 151.519 261.774 145.872 265.139C140.225 268.447 133.979 270.102 127.134 270.102ZM127.134 252.647C130.784 252.647 134.093 251.763 137.059 249.995C140.082 248.226 142.478 245.859 144.246 242.893C146.071 239.87 146.984 236.562 146.984 232.968V213.118H127.134C123.54 213.118 120.232 214.03 117.209 215.856C114.242 217.624 111.875 220.02 110.107 223.043C108.339 226.009 107.455 229.317 107.455 232.968C107.455 236.562 108.339 239.87 110.107 242.893C111.875 245.859 114.242 248.226 117.209 249.995C120.232 251.763 123.54 252.647 127.134 252.647ZM127.134 143.813H146.984V124.134C146.984 120.483 146.071 117.175 144.246 114.209C142.478 111.242 140.082 108.875 137.059 107.107C134.093 105.339 130.784 104.455 127.134 104.455C123.54 104.455 120.232 105.339 117.209 107.107C114.242 108.875 111.875 111.242 110.107 114.209C108.339 117.175 107.455 120.483 107.455 124.134C107.455 127.784 108.339 131.121 110.107 134.144C111.875 137.111 114.242 139.478 117.209 141.246C120.232 142.957 123.54 143.813 127.134 143.813ZM216.289 143.813H235.968C239.619 143.813 242.927 142.957 245.893 141.246C248.859 139.478 251.226 137.111 252.995 134.144C254.763 131.121 255.647 127.784 255.647 124.134C255.647 120.483 254.763 117.175 252.995 114.209C251.226 111.242 248.859 108.875 245.893 107.107C242.927 105.339 239.619 104.455 235.968 104.455C232.317 104.455 228.98 105.339 225.957 107.107C222.991 108.875 220.624 111.242 218.856 114.209C217.144 117.175 216.289 120.483 216.289 124.134V143.813ZM235.968 252.647C239.619 252.647 242.927 251.763 245.893 249.995C248.859 248.226 251.226 245.859 252.995 242.893C254.763 239.87 255.647 236.562 255.647 232.968C255.647 229.317 254.763 226.009 252.995 223.043C251.226 220.02 248.859 217.624 245.893 215.856C242.927 214.03 239.619 213.118 235.968 213.118H216.289V232.968C216.289 236.562 217.144 239.87 218.856 242.893C220.624 245.859 222.991 248.226 225.957 249.995C228.98 251.763 232.317 252.647 235.968 252.647ZM164.439 195.663H198.834V161.267H164.439V195.663Z" fill="black" fill-opacity="0.9"/>
<path d="M319.382 244V113.091H339.134V226.997H398.452V244H319.382ZM438.722 244H417.756L464.865 113.091H487.685L534.794 244H513.828L476.818 136.869H475.795L438.722 244ZM442.237 192.736H510.249V209.355H442.237V192.736ZM553.699 244V113.091H601.639C610.929 113.091 618.62 114.625 624.714 117.693C630.808 120.719 635.368 124.831 638.393 130.03C641.419 135.186 642.931 141.003 642.931 147.48C642.931 152.935 641.93 157.537 639.927 161.287C637.924 164.994 635.24 167.977 631.873 170.236C628.549 172.452 624.885 174.071 620.879 175.094V176.372C625.225 176.585 629.466 177.991 633.599 180.591C637.775 183.148 641.227 186.791 643.954 191.521C646.681 196.251 648.045 202.004 648.045 208.78C648.045 215.47 646.468 221.479 643.315 226.805C640.204 232.089 635.389 236.287 628.869 239.398C622.349 242.466 614.018 244 603.876 244H553.699ZM573.45 227.061H601.958C611.419 227.061 618.194 225.229 622.285 221.564C626.376 217.899 628.422 213.318 628.422 207.821C628.422 203.687 627.377 199.895 625.289 196.443C623.201 192.991 620.218 190.243 616.341 188.197C612.505 186.152 607.946 185.129 602.662 185.129H573.45V227.061ZM573.45 169.724H599.913C604.345 169.724 608.329 168.872 611.866 167.168C615.446 165.463 618.279 163.077 620.368 160.009C622.498 156.898 623.564 153.233 623.564 149.014C623.564 143.602 621.667 139.064 617.875 135.399C614.082 131.734 608.265 129.902 600.424 129.902H573.45V169.724Z" fill="black"/>
<defs>
<filter id="filter0_d_16_53" x="0" y="0" width="751" height="377" filterUnits="userSpaceOnUse" color-interpolation-filters="sRGB">
<feFlood flood-opacity="0" result="BackgroundImageFix"/>
<feColorMatrix in="SourceAlpha" type="matrix" values="0 0 0 0 0 0 0 0 0 0 0 0 0 0 0 0 0 0 127 0" result="hardAlpha"/>
<feOffset dy="10"/>
<feGaussianBlur stdDeviation="15"/>
<feComposite in2="hardAlpha" operator="out"/>
<feColorMatrix type="matrix" values="0 0 0 0 0 0 0 0 0 0 0 0 0 0 0 0 0 0 0.25 0"/>
<feBlend mode="normal" in2="BackgroundImageFix" result="effect1_dropShadow_16_53"/>
<feBlend mode="normal" in="SourceGraphic" in2="effect1_dropShadow_16_53" result="shape"/>
</filter>
</defs>
</svg>
